<svg xmlns="http://www.w3.org/2000/svg" width="192" height="192" viewBox="0 0 192 192">
  <!-- Orange Circle Background -->
  <circle cx="96" cy="96" r="96" fill="#F26522"/>
  <!-- White square behind symbol -->
  <rect x="46" y="38" width="100" height="75" rx="3" fill="white"/>
  <!-- BNI Symbol - interlocking abstract lines -->
  <g transform="translate(46,38)">
    <path d="M20 55 C20 30, 50 15, 50 15 C50 15, 35 40, 35 55 C35 70, 50 85, 50 85" stroke="#F26522" stroke-width="7" fill="none" stroke-linecap="round"/>
    <path d="M65 15 C65 15, 95 30, 95 55 C95 70, 80 85, 65 85 M65 85 C65 85, 50 70, 65 55 C80 40, 65 15, 65 15" stroke="#F26522" stroke-width="7" fill="none" stroke-linecap="round"/>
    <path d="M30 20 L70 20 M30 80 L70 80" stroke="#F26522" stroke-width="5" fill="none"/>
    <path d="M50 15 L50 85" stroke="#F26522" stroke-width="4" fill="none" opacity="0.3"/>
  </g>
  <!-- BNI text below symbol -->
  <text x="96" y="148" text-anchor="middle" font-family="Georgia, 'Times New Roman', serif" font-weight="bold" font-size="48" fill="white" letter-spacing="4">BNI</text>
</svg>
